# xmcd CD database file
#
# Track frame offsets:
#	150
#	15810
#	29137
#	45191
#	60493
#	72862
#	92376
#	103462
#	116366
#	133651
#
# Disc length: 1947 seconds
#
# Revision: 0
# Processed by: cddbd v1.5.1PL2 Copyright (c) Steve Scherf et al.
# Submitted via: CDex 1.51
#
DISCID=7807990a
DTITLE=Country - Downs Home Country Party CD 2
DYEAR=1900
DGENRE=Country
TTITLE0=Romeo
TTITLE1=That Don`t Impress Me Much
TTITLE2=Crazy Little Thing Called Love
TTITLE3=Never Been Kissed
TTITLE4=I JUst Want To Dance With You
TTITLE5=Chattahoochee
TTITLE6=Little Miss Honky Tonk
TTITLE7=Third Rock From rhe Sun
TTITLE8=I Like it,I Love it
TTITLE9=Boot Scootin` Boogie
EXTD=
EXTT0=
EXTT1=
EXTT2=
EXTT3=
EXTT4=
EXTT5=
EXTT6=
EXTT7=
EXTT8=
EXTT9=
PLAYORDER=
